<svg>
    <symbol id="courses" width="47" height="44" viewBox="0 0 47 44" fill="none" xmlns="http://www.w3.org/2000/svg" version="1.1">
        <path d="M30.6051 10.8217C27.6523 11.4557 24.7427 9.57336 24.1097 6.61878C23.4772 3.66375 25.3581 0.7569 28.3127 0.122519C31.2663 -0.510472 34.1746 1.37182 34.8089 4.325C35.4424 7.27958 33.5601 10.1892 30.6051 10.8217Z" fill="#A1D8FF"/>
        <path d="M1.32915 34.5575L3.78882 33.5816L7.837 26.4491L13.0297 22.6368L15.3731 23.9982L17.7855 23.1201C18.1043 22.3518 18.8615 21.811 19.7461 21.811C24.6752 21.811 27.5403 18.2929 27.7804 14.9278C27.9444 13.2304 29.279 11.8296 30.6756 11.153C30.6756 11.153 31.2044 10.8639 31.8059 10.7485C32.3809 10.6387 33.0491 10.635 33.0491 10.635L33.0653 10.634C34.9597 10.6882 37.1891 11.7448 37.6617 13.9454L40.1909 25.7535C40.3424 26.4583 40.2785 27.1298 40.0676 27.7447C40.0366 27.8624 37.4129 34.3443 37.4129 34.3443H43.3568C44.9564 34.3443 46.2534 35.6418 46.2534 37.2414C46.2534 38.8411 44.9564 40.1376 43.3568 40.1376H33.1112C32.1474 40.1376 31.2465 39.658 30.7072 38.8577C30.1692 38.0575 30.0644 37.0436 30.4273 36.1506L32.0561 32.1441L28.5325 33.1515L29.8591 40.4416C30.1451 42.0153 29.1015 43.5222 27.5283 43.81C27.3531 43.842 27.1784 43.8582 27.0061 43.8582C25.634 43.8577 24.4148 42.8781 24.1594 41.4801L22.3624 31.6075C22.0955 30.1414 22.9834 28.7132 24.4157 28.3036L30.121 26.6724L29.1937 22.3425C27.1001 24.7864 23.9254 26.0594 19.747 26.0594C19.2313 26.0594 18.7651 25.8684 18.3972 25.5631L16.3819 26.2966L10.8541 36.8679L11.09 42.5616C11.1187 43.2521 10.5817 43.8355 9.89074 43.8647C9.87267 43.8656 9.85599 43.8656 9.83792 43.8656C9.17063 43.8656 8.61549 43.3392 8.58815 42.6654L8.43709 39.0283L7.83839 42.9379C7.74386 43.5565 7.21096 44 6.60206 44C6.53904 44 6.47509 43.9958 6.41115 43.9856C5.72718 43.88 5.2587 43.2423 5.36296 42.5584L6.34164 36.1719L4.66417 35.2183L2.00987 36.2716C1.89912 36.316 1.78327 36.3364 1.67067 36.3364C1.30366 36.3364 0.956581 36.1168 0.812467 35.7544C0.624331 35.2813 0.856026 34.7447 1.32915 34.5575Z" fill="#A1D8FF"/>
        <path d="M3.78882 33.5815L1.32915 34.5574C0.856026 34.7446 0.624331 35.2812 0.812467 35.7544C0.956581 36.1167 1.30366 36.3364 1.67067 36.3364C1.78327 36.3364 1.89912 36.316 2.00987 36.2715L4.66417 35.2182L6.34164 36.1719L5.36296 42.5583C5.2587 43.2423 5.72718 43.8799 6.41115 43.9856C6.47509 43.9958 6.53904 43.9999 6.60206 43.9999C7.21096 43.9999 7.74386 43.5565 7.83839 42.9378L8.43709 39.0282L8.58815 42.6654C8.61549 43.3391 9.17063 43.8655 9.83792 43.8655C9.85599 43.8655 9.87267 43.8655 9.89074 43.8646C10.5817 43.8354 11.1187 43.252 11.09 42.5616L10.8541 36.8679L16.3819 26.2966L18.3972 25.563L18.0002 24.4999L17.7855 23.706V23.12L15.3731 23.9982L13.0297 22.6367L7.837 26.449L3.78882 33.5815Z" fill="#277DBA"/>
        <path d="M12.5258 19.9826C12.3631 20.1364 12.1991 20.2912 12.0337 20.4451C11.9155 20.5553 12.5888 22.1211 12.5888 22.1211L7.53182 25.7796C7.19122 25.2462 6.84971 24.7106 6.50911 24.1753C5.75888 23.002 5.04387 21.8042 4.16112 20.7236C3.92062 20.4298 3.6347 20.1642 3.33443 19.9284C1.95167 18.8473 2.81126 18.1026 3.03369 17.9729C3.5879 17.6462 4.19958 17.7078 4.77094 18.009C5.08929 18.1782 5.40439 18.3528 5.71996 18.5289C5.81264 18.5804 5.88307 18.5771 5.97065 18.509C6.11847 18.3969 6.2802 18.2996 6.43775 18.2027C7.3497 17.6485 8.23617 17.7477 9.2116 17.3241C9.542 17.1814 11.6022 14.8195 12.6949 15.3955C13.8863 16.0229 13.972 17.3297 13.5897 18.3825C13.3654 19.003 13.0058 19.5326 12.5258 19.9826Z" fill="#277DBA"/>
    </symbol>
    <symbol id="hotel" width="45" height="44" viewBox="0 0 45 44" fill="none" xmlns="http://www.w3.org/2000/svg" version="1.1">
        <path d="M35.1705 25.4684L22.4997 12.6096L9.82869 25.4684C9.0953 26.2126 8.20852 26.7503 7.23828 27.0522V42.711C7.23828 43.4229 7.81544 44.0001 8.52734 44.0001H17.1715V37.8981C17.1715 35.449 19.1533 33.4636 21.5981 33.4636H23.4012C25.846 33.4636 27.8278 35.449 27.8278 37.8981V44.0001H36.4719C37.1838 44.0001 37.761 43.4229 37.761 42.711V27.0521C36.7915 26.7505 35.9048 26.2134 35.1705 25.4684ZM30.1503 27.7656C30.1503 29.0704 29.0944 30.1281 27.792 30.1281C26.4896 30.1281 25.4337 29.0704 25.4337 27.7656H19.5657C19.5657 29.0704 18.5098 30.1281 17.2074 30.1281C15.9049 30.1281 14.8491 29.0704 14.8491 27.7656C14.8491 26.9941 15.2184 26.309 15.7895 25.8779C15.2184 25.4467 14.8491 24.7617 14.8491 23.9901C14.8491 22.6853 15.9049 21.6276 17.2074 21.6276C18.5098 21.6276 19.5657 22.6853 19.5657 23.9901H25.4337C25.4337 22.6853 26.4896 21.6276 27.792 21.6276C29.0945 21.6276 30.1503 22.6853 30.1503 23.9901C30.1503 24.7616 29.781 25.4466 29.2099 25.8779C29.781 26.309 30.1503 26.9941 30.1503 27.7656Z" fill="#A1D8FF"/>
        <path d="M42.25 18.4802L25.1213 1.09751C24.434 0.400039 23.4785 0 22.4998 0C21.5211 0 20.5656 0.400039 19.8784 1.09751L2.74956 18.4802C1.32437 19.9263 1.33941 22.2645 2.78316 23.6924C3.48321 24.3847 4.41039 24.7622 5.39471 24.7561C6.37878 24.7497 7.30141 24.36 7.99252 23.6586L22.4998 8.93638L37.0071 23.6587C37.7045 24.3664 38.6356 24.7562 39.6286 24.7562H39.6287C40.6037 24.756 41.5227 24.3783 42.2164 23.6923C43.66 22.2645 43.6751 19.9263 42.25 18.4802Z" fill="#277DBA"/>
    </symbol>
    <symbol id="individual" width="45" height="44" viewBox="0 0 45 44" fill="none" xmlns="http://www.w3.org/2000/svg" version="1.1">
        <g clip-path="url(#clip0_734_356)">
        <path d="M33.0365 25.0074C30.0761 21.4331 26.3342 19.4646 22.4998 19.4646C18.6655 19.4646 14.9235 21.4331 11.9633 25.0074C9.30242 28.2202 7.71387 32.2692 7.71387 35.8385C7.71387 37.5724 8.24393 38.8931 9.28927 39.7641C10.321 40.6238 11.6832 40.9146 13.203 40.9145C14.82 40.9145 16.6156 40.5852 18.3798 40.2616C19.9215 39.9787 21.3776 39.7116 22.4999 39.7116C23.4686 39.7116 24.8344 39.9652 26.2801 40.2335C29.659 40.8609 33.4887 41.5718 35.701 39.7324C36.7527 38.8579 37.2859 37.5478 37.2859 35.8385C37.286 32.2692 35.6974 28.2202 33.0365 25.0074Z" fill="#A2D8FF"/>
        <path d="M33.3389 5.59851C32.2557 4.00153 30.7047 3.08569 29.0835 3.08569C27.4622 3.08569 25.9113 4.00162 24.8282 5.59851C23.8332 7.06554 23.2852 8.99209 23.2852 11.0233C23.2852 13.0545 23.8331 14.9811 24.8282 16.4481C25.9113 18.045 27.4623 18.9609 29.0835 18.9609C30.7048 18.9609 32.2557 18.045 33.3389 16.4481C34.3339 14.9811 34.8819 13.0545 34.8819 11.0233C34.8819 8.99209 34.334 7.06546 33.3389 5.59851Z" fill="#277DBA"/>
        <path d="M20.1719 5.59851C19.0887 4.00153 17.5378 3.08569 15.9165 3.08569C14.2952 3.08569 12.7442 4.00162 11.6612 5.59851C10.6662 7.06555 10.1182 8.99209 10.1182 11.0233C10.1182 13.0545 10.6661 14.9811 11.6612 16.4481C12.7443 18.0451 14.2952 18.961 15.9165 18.961C17.5378 18.961 19.0887 18.0451 20.1719 16.4481C21.1669 14.9811 21.7149 13.0546 21.7149 11.0233C21.7148 8.99209 21.1669 7.06546 20.1719 5.59851Z" fill="#277DBA"/>
        <path d="M44.244 18.0583C43.8074 16.5729 42.8714 15.4936 41.6088 15.0194C40.5926 14.6377 39.4456 14.7024 38.379 15.2016C36.909 15.8895 35.7075 17.3098 35.0828 19.0985C34.5722 20.5601 34.5085 22.105 34.9036 23.4488C35.3402 24.9341 36.2762 26.0134 37.5389 26.4877C37.9759 26.6519 38.437 26.7334 38.9055 26.7334C39.5266 26.7334 40.1608 26.59 40.7688 26.3054C42.2388 25.6176 43.4403 24.1972 44.065 22.4087V22.4086C44.5755 20.9471 44.6392 19.4021 44.244 18.0583Z" fill="#277DBA"/>
        <path d="M9.91757 19.0983C9.29272 17.3097 8.09123 15.8894 6.62135 15.2016C5.55461 14.7024 4.40751 14.6378 3.39147 15.0193C2.12871 15.4937 1.19276 16.573 0.756116 18.0582C0.361061 19.402 0.424741 20.947 0.935296 22.4086V22.4087C1.56023 24.1973 2.76164 25.6176 4.23151 26.3054C4.83961 26.5899 5.47374 26.7334 6.09481 26.7334C6.56334 26.7334 7.02448 26.6517 7.46139 26.4877C8.72433 26.0133 9.66018 24.934 10.0968 23.4488C10.4917 22.105 10.428 20.5601 9.91757 19.0983Z" fill="#277DBA"/>
        </g>
        <defs>
        <clipPath id="clip0_734_356">
        <rect width="44" height="44" fill="white" transform="translate(0.5)"/>
        </clipPath>
        </defs>
    </symbol>
    <symbol id="group" width="55" height="44" viewBox="0 0 55 44" fill="none" xmlns="http://www.w3.org/2000/svg" version="1.1">
        <g clip-path="url(#clip0_734_314)">
        <path d="M20.1531 15.3456C18.3365 13.1523 16.0404 11.9443 13.6875 11.9443C11.3346 11.9443 9.03836 13.1523 7.22187 15.3456C5.58905 17.3171 4.61426 19.8017 4.61426 21.992C4.61426 23.0559 4.93952 23.8664 5.58098 24.4008C6.21411 24.9284 7.05001 25.1068 7.98256 25.1068C8.97486 25.1068 10.0767 24.9047 11.1593 24.7061C12.1053 24.5326 12.9988 24.3687 13.6875 24.3687C14.2819 24.3687 15.1201 24.5242 16.0072 24.6889C18.0806 25.0739 20.4306 25.5101 21.7882 24.3814C22.4335 23.8448 22.7607 23.0409 22.7607 21.992C22.7608 19.8017 21.786 17.3171 20.1531 15.3456Z" fill="#A2D8FF"/>
        <path d="M20.3393 3.43551C19.6746 2.45555 18.7229 1.89355 17.728 1.89355C16.7331 1.89355 15.7814 2.4556 15.1168 3.43551C14.5062 4.33574 14.1699 5.51794 14.1699 6.76436C14.1699 8.01079 14.5062 9.19299 15.1168 10.0932C15.7814 11.0731 16.7332 11.6352 17.728 11.6352C18.7229 11.6352 19.6746 11.0731 20.3393 10.0932C20.9498 9.19299 21.2861 8.01079 21.2861 6.76436C21.2861 5.51794 20.9499 4.33568 20.3393 3.43551Z" fill="#277DBA"/>
        <path d="M12.2582 3.43551C11.5935 2.45554 10.6418 1.89355 9.64696 1.89355C8.65207 1.89355 7.70032 2.4556 7.03571 3.43551C6.42515 4.33574 6.08887 5.51794 6.08887 6.76437C6.08887 8.0108 6.4251 9.193 7.03571 10.0932C7.70038 11.0732 8.65207 11.6352 9.64696 11.6352C10.6418 11.6352 11.5935 11.0732 12.2582 10.0932C12.8688 9.193 13.2051 8.01085 13.2051 6.76437C13.205 5.51794 12.8688 4.33568 12.2582 3.43551Z" fill="#277DBA"/>
        <path d="M27.0304 11.0815C26.7625 10.17 26.1881 9.50771 25.4133 9.21667C24.7898 8.98248 24.0859 9.02219 23.4314 9.32852C22.5294 9.75061 21.7921 10.6222 21.4087 11.7198C21.0954 12.6167 21.0563 13.5647 21.2988 14.3893C21.5667 15.3007 22.141 15.963 22.9159 16.2541C23.1841 16.3548 23.467 16.4048 23.7545 16.4048C24.1356 16.4048 24.5248 16.3168 24.8979 16.1422C25.7999 15.7201 26.5372 14.8485 26.9206 13.751V13.751C27.2338 12.8541 27.2729 11.9061 27.0304 11.0815Z" fill="#277DBA"/>
        <path d="M5.96646 11.7192C5.58303 10.6216 4.84575 9.7501 3.94378 9.32801C3.28919 9.02168 2.58529 8.98202 1.96181 9.21616C1.18694 9.50726 0.612605 10.1695 0.344662 11.081C0.102242 11.9056 0.141318 12.8536 0.454613 13.7505V13.7505C0.838098 14.8481 1.57532 15.7196 2.47729 16.1417C2.85044 16.3163 3.23957 16.4043 3.62068 16.4043C3.90819 16.4043 4.19116 16.3542 4.45926 16.2536C5.23425 15.9625 5.80852 15.3002 6.07647 14.3888C6.31878 13.5642 6.27971 12.6162 5.96646 11.7192Z" fill="#277DBA"/>
        </g>
        <g clip-path="url(#clip1_734_314)">
        <path d="M47.7781 32.3456C45.9615 30.1523 43.6654 28.9443 41.3125 28.9443C38.9596 28.9443 36.6634 30.1523 34.8469 32.3456C33.2141 34.3171 32.2393 36.8017 32.2393 38.992C32.2393 40.0559 32.5645 40.8664 33.206 41.4008C33.8391 41.9284 34.675 42.1068 35.6076 42.1068C36.5999 42.1068 37.7017 41.9047 38.7843 41.7061C39.7303 41.5326 40.6238 41.3687 41.3125 41.3687C41.9069 41.3687 42.7451 41.5242 43.6322 41.6889C45.7056 42.0739 48.0556 42.5101 49.4132 41.3814C50.0585 40.8448 50.3857 40.0409 50.3857 38.992C50.3858 36.8017 49.411 34.3171 47.7781 32.3456Z" fill="#A2D8FF"/>
        <path d="M47.9643 20.4355C47.2996 19.4555 46.3479 18.8936 45.353 18.8936C44.3581 18.8936 43.4064 19.4556 42.7418 20.4355C42.1312 21.3357 41.7949 22.5179 41.7949 23.7644C41.7949 25.0108 42.1312 26.193 42.7418 27.0932C43.4064 28.0731 44.3582 28.6352 45.353 28.6352C46.3479 28.6352 47.2996 28.0731 47.9643 27.0932C48.5748 26.193 48.9111 25.0108 48.9111 23.7644C48.9111 22.5179 48.5749 21.3357 47.9643 20.4355Z" fill="#277DBA"/>
        <path d="M39.8832 20.4355C39.2185 19.4555 38.2668 18.8936 37.272 18.8936C36.2771 18.8936 35.3253 19.4556 34.6607 20.4355C34.0502 21.3357 33.7139 22.5179 33.7139 23.7644C33.7139 25.0108 34.0501 26.193 34.6607 27.0932C35.3254 28.0732 36.2771 28.6352 37.272 28.6352C38.2668 28.6352 39.2185 28.0732 39.8832 27.0932C40.4938 26.193 40.8301 25.0108 40.8301 23.7644C40.83 22.5179 40.4938 21.3357 39.8832 20.4355Z" fill="#277DBA"/>
        <path d="M54.6554 28.0815C54.3875 27.17 53.8131 26.5077 53.0383 26.2167C52.4148 25.9825 51.7109 26.0222 51.0564 26.3285C50.1544 26.7506 49.4171 27.6222 49.0337 28.7198C48.7204 29.6167 48.6813 30.5647 48.9238 31.3893C49.1917 32.3007 49.766 32.963 50.5409 33.2541C50.8091 33.3548 51.092 33.4048 51.3795 33.4048C51.7606 33.4048 52.1498 33.3168 52.5229 33.1422C53.4249 32.7201 54.1622 31.8485 54.5456 30.751V30.751C54.8588 29.8541 54.8979 28.9061 54.6554 28.0815Z" fill="#277DBA"/>
        <path d="M33.5915 28.7192C33.208 27.6216 32.4708 26.7501 31.5688 26.328C30.9142 26.0217 30.2103 25.982 29.5868 26.2162C28.8119 26.5073 28.2376 27.1695 27.9697 28.081C27.7272 28.9056 27.7663 29.8536 28.0796 30.7505V30.7505C28.4631 31.8481 29.2003 32.7196 30.1023 33.1417C30.4754 33.3163 30.8646 33.4043 31.2457 33.4043C31.5332 33.4043 31.8162 33.3542 32.0843 33.2536C32.8592 32.9625 33.4335 32.3002 33.7015 31.3888C33.9438 30.5642 33.9047 29.6162 33.5915 28.7192Z" fill="#277DBA"/>
        </g>
        <defs>
        <clipPath id="clip0_734_314">
        <rect width="27" height="27" fill="white" transform="translate(0.1875)"/>
        </clipPath>
        <clipPath id="clip1_734_314">
        <rect width="27" height="27" fill="white" transform="translate(27.8125 17)"/>
        </clipPath>
        </defs>
    </symbol>
    <symbol id="protect" width="59" height="44" viewBox="0 0 59 44" fill="none" xmlns="http://www.w3.org/2000/svg" version="1.1">
        <path d="M33.5329 43.4555C29.1293 42.8083 29.882 42.8064 25.4658 43.4555C26.8529 41.6718 28.659 38.836 29.4994 38.3999C30.3387 38.8354 32.1503 41.6776 33.5329 43.4555Z" fill="#A1D8FF"/>
        <path d="M56.331 22.8817C54.6839 26.5433 53.8707 28.6129 54.8144 32.6196C53.5009 32.1953 51.5374 29.8383 50.2931 26.4706C50.0628 24.1124 49.9006 21.6419 50.7854 18.5464C53.0707 10.5451 49.6098 6.8922 45.4395 0.631348C46.373 0.89337 47.1931 1.28357 47.7568 1.84731C50.7729 4.8634 58.5383 9.81312 58.5383 14.962C58.5383 17.9702 57.4154 20.4667 56.331 22.8817Z" fill="#277DBA"/>
        <path d="M32.7625 27.8453C32.5073 28.9089 32.1478 28.5638 29.5002 30.2546C26.8308 28.5498 26.4937 28.9108 26.238 27.8453C26.0917 27.2385 26.2244 26.7042 26.3185 26.5363C26.7394 26.2766 28.2514 26.0361 29.5014 26.0327C30.748 26.0327 32.2577 26.2743 32.6819 26.5363C32.7761 26.7031 32.9088 27.2385 32.7625 27.8453Z" fill="#A1D8FF"/>
        <path d="M42.3872 2.5994C41.617 1.44469 40.4782 0.673368 38.9855 0.289977C38.7371 0.288842 38.5 0.236665 38.2822 0.142519C37.3975 -0.00380511 36.405 -0.0321627 35.307 0.0585809C32.4862 0.294287 30.2657 1.20025 29.9406 1.29496C29.7035 1.34963 29.4754 1.36733 29.2339 1.33012C28.8485 1.26842 24.5705 -0.504483 20.7222 0.141384C20.5044 0.235531 20.2651 0.288842 20.0167 0.289977C18.6703 0.638205 17.4509 1.3392 16.6115 2.5994C12.5329 8.71744 9.8999 11.231 11.7046 17.5494C13.8489 25.0571 10.8758 29.3378 12.6732 33.8288C14.6942 38.883 14.661 43.1477 18.381 44C18.7463 43.9977 19.1002 43.9932 19.4439 43.9853C22.2796 43.1591 24.8263 36.9203 27.6845 35.2557V33.4034C27.1253 33.0404 26.2757 32.5255 25.2492 32.0116C22.1026 30.4384 21.8283 25.8829 23.7496 23.9638C25.8361 21.8757 33.1619 21.875 35.2491 23.9638C37.1892 25.9017 36.8778 30.4476 33.7496 32.0116C32.723 32.5243 31.8746 33.0404 31.3142 33.4034V35.2557C34.1747 36.9216 36.7186 43.1589 39.5549 43.9853C39.8974 43.9932 40.2525 43.9977 40.6177 44C44.3424 43.1467 44.296 38.9043 46.3255 33.8288C48.123 29.3374 45.1493 25.0586 47.2942 17.5494C49.0985 11.2323 46.4718 8.7264 42.3872 2.5994ZM18.7009 18.0473C17.2808 18.0473 16.1294 16.896 16.1294 15.477C16.1294 14.0569 17.2808 12.9056 18.7009 12.9056C20.121 12.9056 21.2723 14.0569 21.2723 15.477C21.2723 16.896 20.121 18.0473 18.7009 18.0473ZM40.2979 18.0473C38.8777 18.0473 37.7264 16.896 37.7264 15.477C37.7264 14.0569 38.8777 12.9056 40.2979 12.9056C41.718 12.9056 42.8693 14.0569 42.8693 15.477C42.8693 16.896 41.718 18.0473 40.2979 18.0473Z" fill="#A1D8FF"/>
        <path d="M8.21481 18.5454C9.09956 21.6409 8.93736 24.1114 8.7071 26.4696C7.46278 29.8373 5.49931 32.1944 4.1858 32.6186C4.37523 31.8144 4.576 30.7368 4.576 29.3598C4.576 24.6462 0.461914 20.7035 0.461914 14.961C0.461914 9.80919 8.22775 4.86197 11.2434 1.84633C11.8071 1.28259 12.6284 0.892393 13.5607 0.630371C9.51109 6.70996 5.90244 10.4492 8.21481 18.5454Z" fill="#277DBA"/>
    </symbol>
    <symbol id="tel" width="15" height="15" viewBox="0 0 15 15" fill="none" xmlns="http://www.w3.org/2000/svg" version="1.1">
        <path d="M0 0.9375C0 0.419733 0.419733 0 0.9375 0H2.95582C3.41411 0 3.80522 0.331325 3.88056 0.783376L4.57367 4.94201C4.64133 5.34797 4.4363 5.7506 4.06819 5.93466L2.61681 6.66035C3.66334 9.26093 5.73907 11.3367 8.33965 12.3832L9.06534 10.9318C9.2494 10.5637 9.65203 10.3587 10.058 10.4263L14.2166 11.1194C14.6687 11.1948 15 11.5859 15 12.0442V14.0625C15 14.5803 14.5803 15 14.0625 15H12.1875C5.45653 15 0 9.54347 0 2.8125V0.9375Z" fill="#302A24"/>
    </symbol>
    <symbol id="instagram" width="30" height="30" viewBox="0 0 30 30" fill="none" xmlns="http://www.w3.org/2000/svg" version="1.1">
        <path d="M9.22322 0.934165L9.22357 0.934148C10.7191 0.867524 11.1996 0.850011 14.9965 0.85L9.22322 0.934165ZM9.22322 0.934165C7.717 1.0048 6.68412 1.24189 5.7764 1.5949C4.82237 1.95388 3.95817 2.51674 3.24415 3.24421C2.51717 3.95856 1.9544 4.8226 1.59493 5.77632C1.24193 6.68224 1.00304 7.71692 0.934157 9.21812L0.934148 9.21834M9.22322 0.934165L0.934148 9.21834M0.934148 9.21834C0.867503 10.7178 0.85 11.1964 0.85 15.0018C0.85 18.8036 0.867503 19.2822 0.934148 20.7782L0.934165 20.7785M0.934148 9.21834L0.934165 20.7785M0.934165 20.7785C1.00482 22.2835 1.24203 23.3165 1.5952 24.2244L1.59524 24.2245M0.934165 20.7785L1.59524 24.2245M1.59524 24.2245C1.96092 25.1628 2.4496 25.9612 3.24406 26.7557M1.59524 24.2245L3.24406 26.7557M26.6497 26.6497C27.4285 25.871 27.9062 25.0905 28.265 24.17M26.6497 26.6497C25.9512 27.3621 25.1055 27.9134 24.1718 28.265M26.6497 26.6497L26.7558 26.7558C26.756 26.7556 26.7562 26.7554 26.7564 26.7553M26.6497 26.6497L26.7568 26.7548C26.7567 26.7549 26.7565 26.7551 26.7564 26.7553M28.265 24.17L15 29C18.8027 29 19.277 28.9825 20.7715 28.916C22.2607 28.846 23.281 28.6115 24.1718 28.265M28.265 24.17C28.6098 23.2792 28.846 22.2625 28.916 20.7715L28.265 24.17ZM24.1718 28.265L24.2246 28.4054C24.2249 28.4053 24.2251 28.4052 24.2254 28.4051M24.1718 28.265L24.2261 28.4048C24.2259 28.4049 24.2256 28.405 24.2254 28.4051M24.2254 28.4051C23.3176 28.7581 22.2812 28.9952 20.7785 29.0658L20.7782 29.0659C19.2804 29.1325 18.8036 29.15 15 29.15C11.1964 29.15 10.7178 29.1325 9.22008 29.0659L9.21989 29.0658C7.71468 28.9969 6.68343 28.7579 5.77401 28.4049M24.2254 28.4051C25.179 28.0458 26.0428 27.4828 26.7564 26.7553M5.77401 28.4049L28.265 5.83L28.4049 5.77577C28.4049 5.77596 28.405 5.77615 28.4051 5.77634C28.7563 6.68215 28.9952 7.71673 29.0658 9.21971L29.0659 9.22008C29.1325 10.7178 29.15 11.1964 29.15 15C29.15 18.8036 29.1325 19.2822 29.0659 20.7782L29.0658 20.7785C28.9952 22.2836 28.7562 23.3165 28.4049 24.2241L28.4048 24.2245C28.0391 25.1626 27.5506 25.9609 26.7564 26.7553M5.77401 28.4049L5.82825 28.265L5.77396 28.4048C5.77398 28.4048 5.77399 28.4048 5.77401 28.4049ZM5.77401 28.4049C4.83536 28.0408 4.03681 27.5502 3.24406 26.7557M5.77401 28.4049L3.24406 26.7557M26.6497 3.35025L26.7569 3.24524C26.7565 3.24489 26.7562 3.24455 26.7558 3.24421C26.7555 3.24388 26.7552 3.24356 26.7549 3.24323L26.6497 3.35025ZM24.2243 1.59517C24.224 1.59507 24.2238 1.59497 24.2235 1.59487C24.2233 1.59478 24.223 1.59468 24.2228 1.59459L24.17 1.735L24.2243 1.59517ZM13.5953 3.6735H13.7452H15.0018C18.7393 3.6735 19.1792 3.68576 20.6508 3.75384L20.651 3.75385C21.9992 3.81435 22.7253 4.04006 23.2041 4.22514C23.8375 4.4714 24.2871 4.76445 24.7622 5.23957C25.2373 5.71465 25.5286 6.16244 25.7749 6.79772L25.7751 6.79818C25.9616 7.27462 26.1856 8.00042 26.2462 9.34898L26.2462 9.34918C26.3142 10.8209 26.3283 11.2609 26.3283 14.9965C26.3283 18.7321 26.3142 19.1739 26.2462 20.6456L26.2462 20.6458C26.1857 21.994 25.9599 22.7183 25.7748 23.1972L25.774 23.1993C25.5574 23.7861 25.2116 24.3166 24.7622 24.7517L24.7604 24.7534C24.2853 25.2285 23.8376 25.5198 23.2023 25.7661L23.2017 25.7664C22.7271 25.9528 22.0013 26.1769 20.6508 26.2392C19.1791 26.3055 18.7388 26.3213 15.0018 26.3213C11.2647 26.3213 10.8227 26.3055 9.35092 26.2392C8.00235 26.1769 7.27817 25.9529 6.79977 25.7662L6.79712 25.7653C6.21003 25.5489 5.67891 25.2036 5.24281 24.755L5.24286 24.7549L5.23963 24.7518C4.78979 24.3159 4.4434 23.7848 4.22592 23.1974L4.22593 23.1974L4.2251 23.1953C4.04008 22.7183 3.81435 21.9923 3.75385 20.644L3.75385 20.644C3.6875 19.1722 3.6735 18.7321 3.6735 14.993C3.6735 11.2558 3.6875 10.8174 3.75384 9.34567C3.81608 7.99706 4.04015 7.27113 4.22675 6.79276L4.22681 6.7926C4.47308 6.15908 4.76615 5.70948 5.24132 5.23432C5.7164 4.75923 6.16419 4.46791 6.79947 4.22161L6.79976 4.22149C7.27817 4.03488 8.00235 3.81083 9.35092 3.74859C10.6143 3.69038 11.1179 3.67245 13.5953 3.67012V3.6735ZM22.4743 5.6975C22.2339 5.6975 21.996 5.74483 21.7739 5.8368C21.5519 5.92877 21.3502 6.06356 21.1802 6.23349C21.0103 6.40343 20.8755 6.60516 20.7835 6.82719C20.6916 7.04922 20.6443 7.28718 20.6443 7.5275C20.6443 7.76782 20.6916 8.00578 20.7835 8.22781C20.8755 8.44984 21.0103 8.65157 21.1802 8.82151C21.3502 8.99144 21.5519 9.12623 21.7739 9.2182C21.996 9.31017 22.2339 9.3575 22.4743 9.3575C22.9596 9.3575 23.4251 9.1647 23.7683 8.82151C24.1114 8.47831 24.3042 8.01285 24.3042 7.5275C24.3042 7.04215 24.1114 6.57669 23.7683 6.23349C23.4251 5.8903 22.9596 5.6975 22.4743 5.6975ZM15.0041 7.66102C14.0306 7.64583 13.0638 7.82446 12.1599 8.1865C11.2561 8.54855 10.4333 9.08678 9.73953 9.76985C9.04571 10.4529 8.49472 11.2672 8.11861 12.1653C7.74251 13.0633 7.54883 14.0272 7.54883 15.0009C7.54883 15.9745 7.74251 16.9384 8.11861 17.8365C8.49472 18.7346 9.04571 19.5488 9.73953 20.2319C10.4333 20.915 11.2561 21.4532 12.1599 21.8152C13.0638 22.1773 14.0306 22.3559 15.0041 22.3407C16.9309 22.3107 18.7686 21.5241 20.1206 20.1509C21.4726 18.7777 22.2303 16.9279 22.2303 15.0009C22.2303 13.0738 21.4726 11.224 20.1206 9.85083C18.7686 8.47761 16.9309 7.69108 15.0041 7.66102ZM15.0018 10.4827C16.1998 10.4827 17.3488 10.9587 18.1959 11.8058C19.0431 12.653 19.519 13.802 19.519 15C19.519 16.198 19.0431 17.347 18.1959 18.1942C17.3488 19.0413 16.1998 19.5173 15.0018 19.5173C13.8037 19.5173 12.6547 19.0413 11.8076 18.1942C10.9604 17.347 10.4845 16.198 10.4845 15C10.4845 13.802 10.9604 12.653 11.8076 11.8058C12.6547 10.9587 13.8037 10.4827 15.0018 10.4827Z" fill="#CBE0EE" stroke="#277DBA" stroke-width="0.3"/>
    </symbol>
    <symbol id="vk" width="27" height="16" viewBox="0 0 27 16" fill="none" xmlns="http://www.w3.org/2000/svg" version="1.1">
        <path d="M26.3809 1.08352C26.5696 0.458411 26.3809 0 25.489 0H22.5341C21.7822 0 21.4386 0.396573 21.25 0.83213C21.25 0.83213 19.7476 4.48731 17.6187 6.85733C16.9316 7.54697 16.6176 7.76475 16.243 7.76475C16.0557 7.76475 15.7836 7.54697 15.7836 6.92186V1.08352C15.7836 0.33339 15.5666 0 14.9401 0H10.2969C9.82801 0 9.54505 0.346833 9.54505 0.677533C9.54505 1.38733 10.6095 1.55134 10.7186 3.55167V7.89111C10.7186 8.84154 10.5475 9.01496 10.1703 9.01496C9.16913 9.01496 6.73301 5.34633 5.28724 1.1467C5.00563 0.330701 4.72132 0.00134486 3.96677 0.00134486H1.01325C0.168426 0.00134486 0 0.397917 0 0.833474C0 1.61586 1.00113 5.48748 4.66339 10.608C7.10489 14.1045 10.5421 16 13.6735 16C15.5505 16 15.7822 15.5792 15.7822 14.8533V12.2104C15.7822 11.3688 15.9614 11.1995 16.5556 11.1995C16.9922 11.1995 17.744 11.4199 19.497 13.1044C21.4993 15.102 21.8307 15.9987 22.9558 15.9987H25.9093C26.7528 15.9987 27.1746 15.5779 26.932 14.7471C26.6666 13.9203 25.7099 12.7172 24.4407 11.2936C23.7508 10.4816 22.72 9.6078 22.4061 9.1709C21.9682 8.60763 22.0948 8.35893 22.4061 7.85885C22.4074 7.86019 26.0064 2.80289 26.3809 1.08352Z" fill="#CBE0EE"/>
    </symbol>
</svg>
